<svg id="Background" xmlns="http://www.w3.org/2000/svg" viewBox="0 0 500 500"><defs><style>.cls-1{fill:none;}.cls-2{fill:#e6e6e6;}</style></defs><polygon class="cls-1" points="82.46 0.03 500.47 418.05 500.47 360.67 139.83 0.03 82.46 0.03"/><polygon class="cls-1" points="415.79 0.03 500.47 84.71 500.47 27.34 473.16 0.03 415.79 0.03"/><polygon class="cls-1" points="304.68 0.03 500.47 195.82 500.47 138.45 362.05 0.03 304.68 0.03"/><polygon class="cls-1" points="193.57 0.03 500.47 306.93 500.47 249.56 250.94 0.03 193.57 0.03"/><polygon class="cls-1" points="0.47 251.38 249.12 500.03 306.5 500.03 0.47 194.01 0.47 251.38"/><polygon class="cls-1" points="0.47 0.03 0.47 29.16 471.35 500.03 500.47 500.03 500.47 471.79 28.72 0.03 0.47 0.03"/><polygon class="cls-1" points="0.47 140.27 360.24 500.03 417.61 500.03 0.47 82.9 0.47 140.27"/><polygon class="cls-1" points="0.47 362.49 138.01 500.03 195.38 500.03 0.47 305.12 0.47 362.49"/><polygon class="cls-1" points="0.47 473.6 26.9 500.03 84.27 500.03 0.47 416.23 0.47 473.6"/><polygon class="cls-2" points="0.47 500.03 26.9 500.03 0.47 473.6 0.47 500.03"/><polygon class="cls-2" points="0.47 416.23 84.27 500.03 138.01 500.03 0.47 362.49 0.47 416.23"/><polygon class="cls-2" points="0.47 305.12 195.38 500.03 249.12 500.03 0.47 251.38 0.47 305.12"/><polygon class="cls-2" points="0.47 194.01 306.5 500.03 360.24 500.03 0.47 140.27 0.47 194.01"/><polygon class="cls-2" points="0.47 82.9 417.61 500.03 471.35 500.03 0.47 29.16 0.47 82.9"/><polygon class="cls-2" points="28.72 0.03 500.47 471.79 500.47 418.05 82.46 0.03 28.72 0.03"/><polygon class="cls-2" points="139.83 0.03 500.47 360.67 500.47 306.93 193.57 0.03 139.83 0.03"/><polygon class="cls-2" points="250.94 0.03 500.47 249.56 500.47 195.82 304.68 0.03 250.94 0.03"/><polygon class="cls-2" points="362.05 0.03 500.47 138.45 500.47 84.71 415.79 0.03 362.05 0.03"/><polygon class="cls-2" points="500.47 27.34 500.47 0.03 473.16 0.03 500.47 27.34"/></svg>