<svg id="Background" xmlns="http://www.w3.org/2000/svg" viewBox="0 0 500 500"><defs><style>.cls-1{fill:none;}.cls-2{fill:#e6e6e6;}</style></defs><polygon class="cls-1" points="499.47 46.9 452.6 0.03 375.15 0.03 499.47 124.35 499.47 46.9"/><polygon class="cls-1" points="499.47 196.9 302.6 0.03 225.15 0.03 499.47 274.35 499.47 196.9"/><polygon class="cls-1" points="499.47 346.9 152.6 0.03 75.15 0.03 499.47 424.35 499.47 346.9"/><polygon class="cls-1" points="2.6 0.03 0.47 0.03 0.47 75.35 424.15 499.03 499.47 499.03 499.47 496.9 2.6 0.03"/><polygon class="cls-1" points="0.47 225.35 274.15 499.03 351.6 499.03 0.47 147.9 0.47 225.35"/><polygon class="cls-1" points="0.47 499.03 51.6 499.03 0.47 447.9 0.47 499.03"/><polygon class="cls-1" points="0.47 375.35 124.15 499.03 201.6 499.03 0.47 297.9 0.47 375.35"/><polygon class="cls-2" points="0.47 447.9 51.6 499.03 124.15 499.03 0.47 375.35 0.47 447.9"/><polygon class="cls-2" points="0.47 297.9 201.6 499.03 274.15 499.03 0.47 225.35 0.47 297.9"/><polygon class="cls-2" points="0.47 147.9 351.6 499.03 424.15 499.03 0.47 75.35 0.47 147.9"/><polygon class="cls-2" points="499.47 424.35 75.15 0.03 2.6 0.03 499.47 496.9 499.47 424.35"/><polygon class="cls-2" points="499.47 274.35 225.15 0.03 152.6 0.03 499.47 346.9 499.47 274.35"/><polygon class="cls-2" points="499.47 124.35 375.15 0.03 302.6 0.03 499.47 196.9 499.47 124.35"/><polygon class="cls-2" points="499.47 0.03 452.6 0.03 499.47 46.9 499.47 0.03"/></svg>