<svg id="Background" xmlns="http://www.w3.org/2000/svg" viewBox="0 0 1801 1029"><defs><style>.cls-1{fill:#e6e6e6;}</style></defs><polygon class="cls-1" points="1801 1006.06 1801 1029 1778.06 1029 1801 1006.06"/><polygon class="cls-1" points="1801 254.07 1801 379.93 1151.94 1029 1026.06 1029 1801 254.07"/><polygon class="cls-1" points="1801 501.07 1801 626.93 1398.93 1029 1273.07 1029 1801 501.07"/><polygon class="cls-1" points="1801 754.07 1801 879.93 1651.93 1029 1526.06 1029 1801 754.07"/><polygon class="cls-1" points="1430.93 0 401.93 1029 276.07 1029 1305.07 0 1430.93 0"/><polygon class="cls-1" points="1679.93 0 650.93 1029 525.07 1029 1554.07 0 1679.93 0"/><polygon class="cls-1" points="1801 3.07 1801 128.93 900.94 1029 775.06 1029 1801 3.07"/><polygon class="cls-1" points="194.93 0 0 194.94 0 69.06 69.06 0 194.93 0"/><polygon class="cls-1" points="442.93 0 0 442.94 0 317.06 317.07 0 442.93 0"/><polygon class="cls-1" points="692.93 0 0 692.94 0 567.06 567.07 0 692.93 0"/><polygon class="cls-1" points="1186.94 0 157.93 1029 32.07 1029 1061.07 0 1186.94 0"/><polygon class="cls-1" points="942.93 0 0 942.94 0 817.06 817.07 0 942.93 0"/></svg>