<?xml version="1.0" encoding="utf-8"?>
<!-- Generator: Adobe Illustrator 25.4.1, SVG Export Plug-In . SVG Version: 6.00 Build 0)  -->
<svg version="1.1" id="Logo" xmlns="http://www.w3.org/2000/svg" xmlns:xlink="http://www.w3.org/1999/xlink" x="0px" y="0px"
	 viewBox="0 0 380 252" style="enable-background:new 0 0 380 252;" xml:space="preserve">
<style type="text/css">
	.st0{fill:#F2F2F2;}
</style>
<g>
	<g>
		<g>
			<polygon points="3,43.84 44.47,2.64 168.82,126.18 127.35,167.38 			"/>
		</g>
		<g>
			<polygon class="st0" points="44.47,250 3,208.8 127.24,85.37 168.71,126.58 			"/>
		</g>
	</g>
	<g>
		<g>
			<polygon class="st0" points="310,3 310,192 252,192 252,83.26 256.37,77.19 			"/>
		</g>
		<g>
			<polygon points="256.37,77.19 252,83.26 252,83.24 			"/>
		</g>
		<g>
			<polygon points="310,3 256.37,77.19 252,83.24 218.42,129.7 185,83.46 185,3 185.19,3 218.59,49.21 252,3 			"/>
		</g>
		<g>
			<polygon class="st0" points="185,3 185,83.46 127,3 			"/>
		</g>
		<g>
			<rect x="127" y="3" class="st0" width="58" height="247"/>
		</g>
	</g>
	<g>
		<polygon points="377,250 310,250 252,192 377,192 		"/>
	</g>
</g>
</svg>
