<?xml version="1.0" encoding="utf-8"?>
<!-- Generator: Adobe Illustrator 25.4.1, SVG Export Plug-In . SVG Version: 6.00 Build 0)  -->
<svg version="1.1" id="Logo" xmlns="http://www.w3.org/2000/svg" xmlns:xlink="http://www.w3.org/1999/xlink" x="0px" y="0px"
	 viewBox="0 0 380 252" style="enable-background:new 0 0 380 252;" xml:space="preserve">
<style type="text/css">
	.st0{fill:#F2F2F2;}
</style>
<g>
	<g>
		<g>
			<polygon class="st0" points="3,42.84 44.47,1.64 168.82,125.18 127.35,166.38 			"/>
		</g>
		<g>
			<polygon points="44.47,249 3,207.8 127.24,84.37 168.71,125.58 			"/>
		</g>
	</g>
	<g>
		<g>
			<polygon points="310,2 310,191 252,191 252,82.26 256.37,76.19 			"/>
		</g>
		<g>
			<polygon points="256.37,76.19 252,82.26 252,82.24 			"/>
		</g>
		<g>
			<polygon class="st0" points="310,2 256.37,76.19 252,82.24 218.42,128.7 185,82.46 185,2 185.19,2 218.59,48.21 252,2 			"/>
		</g>
		<g>
			<polygon class="st0" points="185,2 185,82.46 127,2 			"/>
		</g>
		<g>
			<rect x="127" y="2" width="58" height="247"/>
		</g>
	</g>
	<g>
		<polygon class="st0" points="377,249 310,249 252,191 377,191 		"/>
	</g>
</g>
</svg>
