<?xml version="1.0" encoding="utf-8"?>
<!-- Generator: Adobe Illustrator 25.4.1, SVG Export Plug-In . SVG Version: 6.00 Build 0)  -->
<svg version="1.1" id="Logo" xmlns="http://www.w3.org/2000/svg" xmlns:xlink="http://www.w3.org/1999/xlink" x="0px" y="0px"
	 viewBox="0 0 380 252" style="enable-background:new 0 0 380 252;" xml:space="preserve">
<style type="text/css">
	.color-1{fill:#F2F2F2;}
	.stroke{fill:#29ABE2;}
</style>
<g>
	<g>
		<g>
			<polygon class="color-1" points="3.71,42.84 44.47,2.35 168.11,125.18 127.35,165.68 			"/>
			<path class="stroke" d="M44.47,3.05L167.4,125.18l-40.05,39.79L4.42,42.84L44.47,3.05 M44.47,1.64L3,42.84l124.35,123.54l41.47-41.2
				L44.47,1.64L44.47,1.64z"/>
		</g>
		<g>
			<polygon points="3.71,207.8 127.24,85.08 168,125.58 44.47,248.29 			"/>
			<path class="stroke" d="M127.24,85.78l40.05,39.79L44.47,247.59L4.42,207.8L127.24,85.78 M127.24,84.37L3,207.8L44.47,249
				l124.24-123.42L127.24,84.37L127.24,84.37z"/>
		</g>
	</g>
	<g>
		<g>
			<polygon points="310.21,248.5 252.5,190.79 252.5,82.42 309.5,3.33 309.5,191.5 376.5,191.5 376.5,248.5 			"/>
			<path class="stroke" d="M309,4.88V191v1h1h66v56h-65.59L253,190.59v-108L309,4.88 M310,2h-58v0.27h57.65L252,82.26V191l58,58h67v-58
				h-67V2L310,2z"/>
		</g>
		<g>
			<polygon points="252.5,2.77 308.67,2.77 252.5,80.71 			"/>
			<path class="stroke" d="M307.7,3.27L253,79.16V3.27H307.7 M309.65,2.27H252v79.99L309.65,2.27L309.65,2.27z"/>
		</g>
		<g>
			<polygon class="color-1" points="127.98,2.77 184.93,2.77 218.5,49.33 252.07,2.77 308.67,2.77 218.33,128.11 			"/>
			<path class="stroke" d="M307.7,3.27l-56.51,78.41l-32.86,45.58l-32.52-45.11L128.95,3.27h55.72l33.01,45.79l0.81,1.13l0.81-1.13
				l33.01-45.79H307.7 M309.65,2.27h-57.84L218.5,48.48L185.19,2.27H127l58,80.46l33.33,46.24L252,82.26L309.65,2.27L309.65,2.27z"
				/>
		</g>
		<g>
			<rect x="127.5" y="2.5" width="57" height="246"/>
			<path class="stroke" d="M184,3v245h-56V3H184 M185,2h-58v247h58V2L185,2z"/>
		</g>
	</g>
	<g>
		<polygon class="color-1" points="310.21,248.5 253.21,191.5 376.5,191.5 376.5,248.5 		"/>
		<path class="stroke" d="M376,192v56h-65.59l-56-56H376 M377,191H252l58,58h67V191L377,191z"/>
	</g>
</g>
</svg>
